<?xml version="1.0" encoding="UTF-8" standalone="no"?>
<!DOCTYPE svg PUBLIC "-//W3C//DTD SVG 20010904//EN" "http://www.w3.org/TR/2001/REC-SVG-20010904/DTD/svg10.dtd">
<svg version="1.0" xmlns="http://www.w3.org/2000/svg" width="900.000000pt" height="900.000000pt" viewBox="0 0 900.000000 900.000000" preserveAspectRatio="xMidYMid meet">
<metadata>
Created by potrace 1.10, written by Peter Selinger 2001-2011
</metadata>
<g transform="translate(0.000000,900.000000) scale(0.100000,-0.100000)" fill="#ffffff" stroke="none">
<path d="M3954 6910 c-43 -28 -95 -143 -74 -164 6 -6 10 -19 10 -30 0 -14 68 -88 193 -213 105 -105 205 -204 220 -221 l28 -29 0 -214 c0 -117 -4 -215 -9 -217 -5 -1 -44 34 -88 79 -138 141 -209 153 -311 51 -31 -30 -33 -37 -33 -98 0 -62 2 -68 43 -116 23 -29 71 -80 107 -115 l65 -64 -30 -24 c-16 -14 -38 -25 -47 -25 -9 0 -19 -4 -23 -9 -3 -6 -27 -20 -53 -33 -26 -12 -61 -33 -78 -45 -17 -13 -37 -23 -45 -23 -24 0 -446 431 -453 463 -4 16 -8 163 -9 327 -2 284 -3 300 -23 327 -26 35 -98 73 -141 73 -42 0 -104 -33 -131 -70 -21 -28 -22 -38 -22 -288 0 -257 0 -259 -23 -280 -23 -21 -30 -22 -280 -22 -170 0 -258 -4 -262 -11 -4 -5 -17 -14 -30 -19 -28 -11 -65 -80 -65 -123 0 -43 38 -115 73 -141 27 -20 45 -21 353 -26 l324 -5 339 -339 c242 -242 343 -336 352 -330 25 14 59 49 59 59 0 15 83 95 97 95 7 0 16 6 20 13 23 36 133 97 263 146 63 23 73 24 423 28 308 4 357 2 357 -10 0 -8 -64 -78 -142 -156 l-141 -141 -155 0 c-167 0 -207 -8 -332 -69 -67 -32 -167 -129 -198 -193 -37 -75 -44 -78 -222 -78 -85 0 -171 5 -190 10 -26 7 -90 64 -255 230 l-220 220 -67 0 c-64 0 -69 -2 -103 -35 -58 -59 -80 -131 -50 -171 8 -10 15 -25 15 -33 0 -7 40 -54 90 -104 63 -64 87 -94 80 -102 -7 -6 -86 -11 -200 -13 -148 -3 -195 0 -216 11 -15 8 -117 104 -228 213 -111 110 -213 208 -228 217 -18 11 -48 17 -86 17 -55 0 -60 -2 -102 -45 -45 -45 -45 -47 -45 -115 l0 -70 188 -187 c103 -104 187 -194 187 -201 0 -8 -76 -90 -169 -183 -210 -209 -211 -211 -211 -265 0 -57 13 -88 53 -129 32 -33 38 -35 101 -35 42 0 75 5 89 15 13 8 104 96 202 196 99 100 198 194 219 210 l39 29 209 0 c162 0 208 -3 208 -13 0 -7 -38 -51 -85 -97 -47 -47 -94 -103 -105 -126 -22 -44 -26 -89 -10 -99 6 -3 10 -15 10 -25 0 -10 19 -35 42 -54 39 -34 46 -36 112 -36 l69 0 216 215 c119 119 223 220 231 225 8 5 96 10 196 10 203 0 197 2 240 -84 25 -52 119 -146 169 -171 22 -11 47 -25 55 -31 31 -23 131 -37 290 -41 l165 -4 143 -142 c78 -78 142 -150 142 -159 0 -17 -21 -18 -330 -18 -182 0 -338 4 -348 9 -9 5 -51 17 -92 26 -41 10 -82 23 -90 29 -8 7 -33 21 -55 31 -52 26 -160 99 -197 133 -16 15 -45 48 -63 75 -19 26 -42 47 -52 47 -9 0 -169 -153 -356 -340 l-340 -340 -311 0 -310 0 -37 -26 c-52 -36 -70 -67 -75 -129 -5 -53 -4 -54 45 -104 l51 -51 258 0 c217 0 261 -2 280 -16 22 -15 22 -18 22 -271 0 -242 1 -257 21 -290 51 -83 156 -109 225 -57 18 14 43 41 54 59 19 32 20 48 20 341 l-1 308 228 228 c125 125 231 228 236 228 4 0 33 -17 65 -39 31 -21 90 -54 129 -72 53 -25 73 -39 73 -53 0 -10 -39 -57 -87 -105 -111 -109 -123 -128 -123 -189 0 -85 76 -162 161 -162 46 0 99 34 184 120 44 44 85 80 91 80 20 0 24 -39 24 -234 l0 -189 -230 -232 -230 -233 0 -67 c0 -65 2 -69 38 -104 65 -64 123 -77 190 -42 20 11 113 97 206 190 93 94 176 171 185 171 9 0 95 -79 191 -175 96 -97 188 -182 204 -190 58 -29 116 -15 179 44 35 33 37 38 37 99 0 47 -5 73 -20 96 -11 17 -105 116 -209 220 -105 103 -197 199 -206 212 -13 20 -15 56 -13 226 2 155 6 203 16 203 6 0 47 -35 90 -78 118 -116 172 -137 258 -98 66 30 84 61 84 145 l0 72 -60 59 c-41 40 -60 67 -58 80 3 19 12 20 207 23 l204 2 116 -114 116 -115 5 -330 5 -329 25 -27 c37 -40 73 -55 129 -55 51 0 120 32 121 56 0 6 7 17 15 24 11 9 15 59 17 271 3 254 3 259 26 281 22 23 27 23 284 26 243 3 263 4 286 23 42 33 62 75 62 130 0 56 -15 92 -55 129 l-27 25 -311 3 c-245 2 -318 6 -342 17 -16 8 -235 219 -485 470 -250 250 -472 464 -493 475 -34 18 -58 20 -232 20 -167 0 -200 3 -228 18 -130 70 -130 216 0 290 16 8 80 12 216 12 116 0 208 4 228 11 24 8 168 145 509 485 l475 474 295 0 c341 0 372 5 422 74 24 33 28 49 28 101 0 43 -5 66 -15 75 -8 7 -15 18 -15 25 0 16 -64 55 -89 55 -9 0 -21 4 -27 10 -6 6 -108 11 -244 12 l-235 3 -5 225 c-3 148 -9 235 -17 253 -7 16 -13 37 -13 49 0 53 -82 106 -160 102 -74 -3 -132 -45 -145 -105 -4 -16 -11 -31 -16 -34 -5 -4 -9 -135 -9 -309 l0 -303 -69 -69 c-38 -38 -87 -86 -109 -107 l-39 -38 -194 0 c-107 0 -200 0 -206 1 -25 0 -13 39 17 57 17 9 30 21 30 25 0 4 12 22 28 40 42 50 56 100 41 146 -15 42 -61 97 -101 118 -15 8 -47 14 -72 14 -43 0 -49 -4 -150 -100 -58 -55 -110 -100 -116 -100 -6 0 -10 73 -10 217 l0 216 220 222 c121 121 220 227 220 233 0 7 7 23 15 36 15 22 14 28 -10 79 -40 84 -63 101 -146 105 -60 4 -75 1 -100 -17 -15 -11 -30 -21 -33 -21 -8 0 -266 -261 -266 -269 0 -5 -15 -20 -34 -35 l-35 -26 -35 21 c-19 11 -38 29 -41 40 -4 11 -18 24 -31 29 -14 6 -27 17 -31 26 -7 20 -111 124 -123 124 -5 0 -16 14 -25 30 -9 17 -21 30 -27 30 -7 0 -27 14 -45 32 -30 29 -41 33 -101 36 -54 2 -73 -1 -98 -18z"/>
<path d="M5869 5099 c-7 -5 -23 -9 -35 -9 -11 0 -33 -13 -49 -30 -16 -16 -32 -30 -37 -30 -9 0 -128 -122 -128 -131 0 -3 -11 -12 -25 -19 -14 -7 -25 -18 -25 -23 0 -5 -81 -89 -180 -187 -133 -131 -180 -184 -180 -201 0 -17 17 -40 55 -73 31 -27 77 -71 103 -99 63 -67 99 -104 153 -153 24 -22 67 -66 94 -96 28 -30 84 -85 126 -121 l76 -67 67 0 c80 0 97 8 136 62 23 31 30 52 30 85 0 64 -21 100 -105 181 -119 116 -124 112 120 112 113 0 214 -4 224 -9 9 -5 111 -104 226 -220 116 -116 218 -211 228 -211 9 0 26 -5 36 -12 15 -9 25 -9 46 0 14 7 33 12 41 12 25 0 75 43 90 79 17 41 18 104 2 134 -7 12 -25 37 -40 55 -16 18 -28 37 -28 43 0 5 -11 14 -25 19 -14 5 -30 21 -35 34 -5 13 -17 27 -27 30 -10 4 -29 22 -43 41 -14 19 -33 37 -43 40 -9 4 -24 19 -32 34 -8 16 -23 31 -34 34 -10 2 -27 21 -36 41 l-17 36 73 76 c108 110 111 113 180 180 94 89 119 129 119 191 0 83 -43 141 -127 170 -67 23 -91 7 -329 -229 -121 -120 -224 -218 -230 -218 -127 -3 -427 0 -431 3 -2 3 41 53 96 111 l101 106 0 59 c0 56 -2 61 -46 110 -26 29 -55 51 -66 51 -10 0 -27 4 -37 9 -10 6 -23 6 -32 0z"/>
</g>
</svg>